<svg id="SvgjsSvg1001" width="288" height="288" xmlns="http://www.w3.org/2000/svg" version="1.1" xmlns:xlink="http://www.w3.org/1999/xlink" xmlns:svgjs="http://svgjs.com/svgjs"><defs id="SvgjsDefs1002"></defs><g id="SvgjsG1008"><svg xmlns="http://www.w3.org/2000/svg" viewBox="0 0 500 500" width="288" height="288"><path fill="#ffffff" fill-rule="evenodd" d="M48.327,237.918C67.659,220.3,80.9,209.335,94.8,197.026c23.239-22.915,30.307-32.081,55.762-59.48a230.144,230.144,0,0,1,50.185-33.457c14.427-7.07,27.2-11.215,40.893-13.011a106.624,106.624,0,0,1,29.739,0,100.143,100.143,0,0,1,33.458,11.152,99.037,99.037,0,0,1,20.446,14.87c8.9,9.625,1.914,23.921-13.011,16.729a133.316,133.316,0,0,0-14.87-9.294c-8.186-4.392-16.419-7.781-22.305-9.293a84.488,84.488,0,0,0-31.6-1.859c-9,1.142-23.906,6.612-39.033,14.87-12.356,6.745-24.154,14.283-31.6,20.446-11.807,9.775-20.24,20.256-27.881,29.74-8.717,10.82-20.657,23.216-33.457,35.316-3.21,3.034-7.586,7-11.528,10.529-10.191,9.128-20.432,17.849-30.22,25.632-2.816,2.239-5.6,4.413-8.438,6.59-2.369.627-7.431,1.274-11.152-1.859C46.443,251.5,43.959,243.772,48.327,237.918Zm117.1-11.152c-7.507,7.816-15.616,16.007-22.305,22.305-9.2,8.666-24.08,20.827-37.175,31.6-11.992,9.865-24.486,19.938-35.316,27.881-4.333,3.178-1.4,1.414-13.011,7.435-14.048,2.867-16.313-10.708-11.152-16.728,8.027-8.028,30.743-24.638,46.468-37.175,14.061-11.211,27.288-22.4,39.033-33.457,8.076-7.6,16.92-16.281,22.305-22.305,6.846-7.658,19.871-20.2,29.74-31.6a103.681,103.681,0,0,1,24.163-20.446c11.212-7.136,23.065-12.328,46.469-14.87,17.876-.451,26.983,4.82,31.6,7.435s12.8,7.409,18.588,16.729c3.257,5.248,7.83,14.911,9.293,29.74,0.862,8.734-.91,16.389-1.858,22.3-2.506,15.629-10.364,27.218-14.87,33.458-7.682,10.637-17.892,24.686-22.305,29.739-9.456,10.828-21.647,24.969-27.881,31.6-9.745,10.363-19.522,20.142-29.74,29.74-7.194,6.757-20.734,18.44-31.6,27.881-10.791,9.376-21.662,18.616-31.6,26.022-7.918,5.9-15.877,11.412-24.163,16.729-8.874,4.672-24.972-6.8-13.012-18.588,4.34-3.106,8.72-6.238,13.078-9.35,4.327-3.091,10.362-7.376,12.945-9.237,14.278-10.289,31.81-25.887,48.678-41.182,8.9-8.069,19.112-17.377,25.671-23.874,10.048-9.952,19.262-19.77,27.881-29.74,9.832-11.371,20.936-24.942,29.74-37.174,7.044-10.192,10.739-14.192,14.87-24.164a53.44,53.44,0,0,0,0-29.74,32.656,32.656,0,0,0-29.74-26.022c-10.948.414-17.785,1.34-27.881,5.576-7.758,3.256-22.58,12-31.6,22.305C191.885,198.853,173.081,218.8,165.428,226.766Zm267.658-52.045c7.806,53.195-17.424,112.8-37.175,144.982-1.662,2.707-5.881,8.469-8.727,13.444-6.008,10.5-15.237,19.993-21.013,27.448-9.266,11.959,4.884,17.5,7.241,18.994,1.614,1.027,4.384-.076,7.629-2.266,44.775-44.378,88.049-138.822,72.491-217.472-9.209-38.945-32.3-75.519-47.275-93.272s-32.772-35.877-43.8-40.557S342.408,35.172,351.3,44.61C403.538,90.414,426.848,132.221,433.086,174.721Zm-321.562-31.6C142,112.172,170.3,82.648,219.331,70.632c90.034-22.063,164.746,40.7,169.145,128.253C382.424,315.361,257.117,402.727,191.45,455.39c-7.878,12.574,4.543,22,13.011,18.588C228.78,456.729,364.7,354.124,397.77,263.941,441.319,145.167,360.225,34.291,236.059,44.61c-40.1,3.776-95.149,24.38-139.4,85.5C92.5,138.08,104.252,147.41,111.524,143.123Zm152.417,63.2c-13.255,25.7-52.771,68.144-91.079,102.23-36.589,32.558-73.207,56.363-76.208,57.621-17.782,12.17-24.943-8.6-16.729-14.87,7.208-5.836,46.247-31.883,70.632-53.9,40.223-33.125,81.434-82.1,94.8-100.372C251.261,190.83,265.744,195.532,263.941,206.32Zm-53.9,174.721c10.5-10.09,46.923-47,61.338-61.338,6.763-6.724,18.453-19.344,27.882-29.74a244.594,244.594,0,0,0,16.728-20.446,182.2,182.2,0,0,0,11.153-16.729c10.486-22.394,12.121-44.8,9.293-76.208,5.338-15.557,19.7-7.969,20.446-1.859a153.981,153.981,0,0,1,0,59.48,128.528,128.528,0,0,1-16.728,40.892A126.631,126.631,0,0,1,329,289.963c-8.872,10.256-21.278,24.744-26.022,29.74-15.746,16.582-35.048,37.147-46.468,48.327-10.42,10.2-20.778,19.948-31.6,29.74C217.39,403.57,198.449,396.1,210.037,381.041ZM48.327,237.918C67.659,220.3,80.9,209.335,94.8,197.026c23.239-22.915,30.307-32.081,55.762-59.48a230.144,230.144,0,0,1,50.185-33.457c14.427-7.07,27.2-11.215,40.893-13.011a106.624,106.624,0,0,1,29.739,0,100.143,100.143,0,0,1,33.458,11.152,99.037,99.037,0,0,1,20.446,14.87c8.9,9.625,1.914,23.921-13.011,16.729a133.316,133.316,0,0,0-14.87-9.294c-8.186-4.392-16.419-7.781-22.305-9.293a84.488,84.488,0,0,0-31.6-1.859c-9,1.142-23.906,6.612-39.033,14.87-12.356,6.745-24.154,14.283-31.6,20.446-11.807,9.775-20.24,20.256-27.881,29.74-8.717,10.82-20.657,23.216-33.457,35.316-3.21,3.034-7.586,7-11.528,10.529-10.191,9.128-20.432,17.849-30.22,25.632-2.816,2.239-5.6,4.413-8.438,6.59-2.369.627-7.431,1.274-11.152-1.859C46.443,251.5,43.959,243.772,48.327,237.918Zm117.1-11.152c-7.507,7.816-15.616,16.007-22.305,22.305-9.2,8.666-24.08,20.827-37.175,31.6-11.992,9.865-24.486,19.938-35.316,27.881-4.333,3.178-1.4,1.414-13.011,7.435-14.048,2.867-16.313-10.708-11.152-16.728,8.027-8.028,30.743-24.638,46.468-37.175,14.061-11.211,27.288-22.4,39.033-33.457,8.076-7.6,16.92-16.281,22.305-22.305,6.846-7.658,19.871-20.2,29.74-31.6a103.681,103.681,0,0,1,24.163-20.446c11.212-7.136,23.065-12.328,46.469-14.87,17.876-.451,26.983,4.82,31.6,7.435s12.8,7.409,18.588,16.729c3.257,5.248,7.83,14.911,9.293,29.74,0.862,8.734-.91,16.389-1.858,22.3-2.506,15.629-10.364,27.218-14.87,33.458-7.682,10.637-17.892,24.686-22.305,29.739-9.456,10.828-21.647,24.969-27.881,31.6-9.745,10.363-19.522,20.142-29.74,29.74-7.194,6.757-20.734,18.44-31.6,27.881-10.791,9.376-21.662,18.616-31.6,26.022-7.918,5.9-15.877,11.412-24.163,16.729-8.874,4.672-24.972-6.8-13.012-18.588,4.34-3.106,8.72-6.238,13.078-9.35,4.327-3.091,10.362-7.376,12.945-9.237,14.278-10.289,31.81-25.887,48.678-41.182,8.9-8.069,19.112-17.377,25.671-23.874,10.048-9.952,19.262-19.77,27.881-29.74,9.832-11.371,20.936-24.942,29.74-37.174,7.044-10.192,10.739-14.192,14.87-24.164a53.44,53.44,0,0,0,0-29.74,32.656,32.656,0,0,0-29.74-26.022c-10.948.414-17.785,1.34-27.881,5.576-7.758,3.256-22.58,12-31.6,22.305C191.885,198.853,173.081,218.8,165.428,226.766Zm267.658-52.045c7.806,53.195-17.424,112.8-37.175,144.982-1.662,2.707-5.881,8.469-8.727,13.444-6.008,10.5-15.237,19.993-21.013,27.448-9.266,11.959,4.884,17.5,7.241,18.994,1.614,1.027,4.384-.076,7.629-2.266,44.775-44.378,88.049-138.822,72.491-217.472-9.209-38.945-32.3-75.519-47.275-93.272s-32.772-35.877-43.8-40.557S342.408,35.172,351.3,44.61C403.538,90.414,426.848,132.221,433.086,174.721Zm-321.562-31.6C142,112.172,170.3,82.648,219.331,70.632c90.034-22.063,164.746,40.7,169.145,128.253C382.424,315.361,257.117,402.727,191.45,455.39c-7.878,12.574,4.543,22,13.011,18.588C228.78,456.729,364.7,354.124,397.77,263.941,441.319,145.167,360.225,34.291,236.059,44.61c-40.1,3.776-95.149,24.38-139.4,85.5C92.5,138.08,104.252,147.41,111.524,143.123Zm152.417,63.2c-13.255,25.7-52.771,68.144-91.079,102.23-36.589,32.558-73.207,56.363-76.208,57.621-17.782,12.17-24.943-8.6-16.729-14.87,7.208-5.836,46.247-31.883,70.632-53.9,40.223-33.125,81.434-82.1,94.8-100.372C251.261,190.83,265.744,195.532,263.941,206.32Zm-53.9,174.721c10.5-10.09,46.923-47,61.338-61.338,6.763-6.724,18.453-19.344,27.882-29.74a244.594,244.594,0,0,0,16.728-20.446,182.2,182.2,0,0,0,11.153-16.729c10.486-22.394,12.121-44.8,9.293-76.208,5.338-15.557,19.7-7.969,20.446-1.859a153.981,153.981,0,0,1,0,59.48,128.528,128.528,0,0,1-16.728,40.892A126.631,126.631,0,0,1,329,289.963c-8.872,10.256-21.278,24.744-26.022,29.74-15.746,16.582-35.048,37.147-46.468,48.327-10.42,10.2-20.778,19.948-31.6,29.74C217.39,403.57,198.449,396.1,210.037,381.041ZM48.327,237.918C67.659,220.3,80.9,209.335,94.8,197.026c23.239-22.915,30.307-32.081,55.762-59.48a230.144,230.144,0,0,1,50.185-33.457c14.427-7.07,27.2-11.215,40.893-13.011a106.624,106.624,0,0,1,29.739,0,100.143,100.143,0,0,1,33.458,11.152,99.037,99.037,0,0,1,20.446,14.87c8.9,9.625,1.914,23.921-13.011,16.729a133.316,133.316,0,0,0-14.87-9.294c-8.186-4.392-16.419-7.781-22.305-9.293a84.488,84.488,0,0,0-31.6-1.859c-9,1.142-23.906,6.612-39.033,14.87-12.356,6.745-24.154,14.283-31.6,20.446-11.807,9.775-20.24,20.256-27.881,29.74-8.717,10.82-20.657,23.216-33.457,35.316-3.21,3.034-7.586,7-11.528,10.529-10.191,9.128-20.432,17.849-30.22,25.632-2.816,2.239-5.6,4.413-8.438,6.59-2.369.627-7.431,1.274-11.152-1.859C46.443,251.5,43.959,243.772,48.327,237.918Zm117.1-11.152c-7.507,7.816-15.616,16.007-22.305,22.305-9.2,8.666-24.08,20.827-37.175,31.6-11.992,9.865-24.486,19.938-35.316,27.881-4.333,3.178-1.4,1.414-13.011,7.435-14.048,2.867-16.313-10.708-11.152-16.728,8.027-8.028,30.743-24.638,46.468-37.175,14.061-11.211,27.288-22.4,39.033-33.457,8.076-7.6,16.92-16.281,22.305-22.305,6.846-7.658,19.871-20.2,29.74-31.6a103.681,103.681,0,0,1,24.163-20.446c11.212-7.136,23.065-12.328,46.469-14.87,17.876-.451,26.983,4.82,31.6,7.435s12.8,7.409,18.588,16.729c3.257,5.248,7.83,14.911,9.293,29.74,0.862,8.734-.91,16.389-1.858,22.3-2.506,15.629-10.364,27.218-14.87,33.458-7.682,10.637-17.892,24.686-22.305,29.739-9.456,10.828-21.647,24.969-27.881,31.6-9.745,10.363-19.522,20.142-29.74,29.74-7.194,6.757-20.734,18.44-31.6,27.881-10.791,9.376-21.662,18.616-31.6,26.022-7.918,5.9-15.877,11.412-24.163,16.729-8.874,4.672-24.972-6.8-13.012-18.588,4.34-3.106,8.72-6.238,13.078-9.35,4.327-3.091,10.362-7.376,12.945-9.237,14.278-10.289,31.81-25.887,48.678-41.182,8.9-8.069,19.112-17.377,25.671-23.874,10.048-9.952,19.262-19.77,27.881-29.74,9.832-11.371,20.936-24.942,29.74-37.174,7.044-10.192,10.739-14.192,14.87-24.164a53.44,53.44,0,0,0,0-29.74,32.656,32.656,0,0,0-29.74-26.022c-10.948.414-17.785,1.34-27.881,5.576-7.758,3.256-22.58,12-31.6,22.305C191.885,198.853,173.081,218.8,165.428,226.766Zm267.658-52.045c7.806,53.195-17.424,112.8-37.175,144.982-1.662,2.707-5.881,8.469-8.727,13.444-6.008,10.5-15.237,19.993-21.013,27.448-9.266,11.959,4.884,17.5,7.241,18.994,1.614,1.027,4.384-.076,7.629-2.266,44.775-44.378,88.049-138.822,72.491-217.472-9.209-38.945-32.3-75.519-47.275-93.272s-32.772-35.877-43.8-40.557S342.408,35.172,351.3,44.61C403.538,90.414,426.848,132.221,433.086,174.721Zm-321.562-31.6C142,112.172,170.3,82.648,219.331,70.632c90.034-22.063,164.746,40.7,169.145,128.253C382.424,315.361,257.117,402.727,191.45,455.39c-7.878,12.574,4.543,22,13.011,18.588C228.78,456.729,364.7,354.124,397.77,263.941,441.319,145.167,360.225,34.291,236.059,44.61c-40.1,3.776-95.149,24.38-139.4,85.5C92.5,138.08,104.252,147.41,111.524,143.123Zm152.417,63.2c-13.255,25.7-52.771,68.144-91.079,102.23-36.589,32.558-73.207,56.363-76.208,57.621-17.782,12.17-24.943-8.6-16.729-14.87,7.208-5.836,46.247-31.883,70.632-53.9,40.223-33.125,81.434-82.1,94.8-100.372C251.261,190.83,265.744,195.532,263.941,206.32Zm-53.9,174.721c10.5-10.09,46.923-47,61.338-61.338,6.763-6.724,18.453-19.344,27.882-29.74a244.594,244.594,0,0,0,16.728-20.446,182.2,182.2,0,0,0,11.153-16.729c10.486-22.394,12.121-44.8,9.293-76.208,5.338-15.557,19.7-7.969,20.446-1.859a153.981,153.981,0,0,1,0,59.48,128.528,128.528,0,0,1-16.728,40.892A126.631,126.631,0,0,1,329,289.963c-8.872,10.256-21.278,24.744-26.022,29.74-15.746,16.582-35.048,37.147-46.468,48.327-10.42,10.2-20.778,19.948-31.6,29.74C217.39,403.57,198.449,396.1,210.037,381.041Z" data-name="Fond 1" class="color120038 svgShape"></path></svg></g></svg>