<svg xmlns="http://www.w3.org/2000/svg" width="1000" height="453.125" viewBox="0 0 320 145">
  <defs>
    <style>
      .cls-1 {
        fill-rule: evenodd;
      }
    </style>
  </defs>
  <path id="sleeq_vector" class="cls-1" d="M309.97,145.29v-50.2A34.046,34.046,0,0,1,259.822,97.1a35.186,35.186,0,0,1,1-50.2,34.114,34.114,0,0,1,23.068-9.035A34.6,34.6,0,0,1,309.97,49.918V39.879H320V145.29H309.97ZM284.9,46.907a25.6,25.6,0,1,0,26.077,26.1A25.771,25.771,0,0,0,284.9,46.907ZM186.825,75.335c2.616,13.9,13.686,23.277,25.134,23.286,8.192,0.006,15.483-4.715,20.107-11.137l7.037,6.075c-6.871,8.537-17.024,14.394-28.149,14.174C193.511,107.388,177.5,92.05,177.777,72.3c0.274-19.557,16.363-34.654,33.177-34.422,9.313,0.128,17.688,4.894,23.123,11.137a33.441,33.441,0,0,1,8.042,19.236v7.087H186.825Zm40.214-21.261c-4.417-5.571-11.471-7-16.085-7.087a22.595,22.595,0,0,0-23.123,20.248h43.23A19.459,19.459,0,0,0,227.039,54.074ZM112.825,75.335c2.616,13.9,13.686,23.277,25.134,23.286,8.192,0.006,15.483-4.715,20.107-11.137l7.037,6.075c-6.871,8.537-17.024,14.394-28.149,14.174C119.511,107.388,103.5,92.05,103.777,72.3c0.274-19.557,16.363-34.654,33.177-34.422,9.313,0.128,17.688,4.894,23.123,11.137a33.441,33.441,0,0,1,8.042,19.236v7.087H112.825Zm40.214-21.261c-4.417-5.571-11.471-7-16.085-7.087a22.595,22.595,0,0,0-23.123,20.248h43.23A19.459,19.459,0,0,0,153.039,54.074ZM88.986,104.926V0H78.993V104.926h9.993Zm-26.614-88.9-9.1,7.053a26.059,26.059,0,0,0-19.2-9.069c-4.291-.027-12.2,1.03-17.18,7.054a16.225,16.225,0,0,0-4.042,10.076c0,7.4,6.337,15.142,17.18,18.137L42.16,53.307c12.325,3,20.859,12.5,22.233,23.176,1.44,11.181-5.175,19.5-9.1,23.176-3.421,3.205-11.749,7.821-24.254,8.061-9.86.189-16.739-2.357-21.222-5.038A35.788,35.788,0,0,1-.284,93.612l9.1-7.053c5.2,7.132,13.255,12.1,22.233,12.092,5.119,0,11.465-1.512,16.169-6.046,3.164-3.05,6.031-7.338,6.063-12.092C53.327,73,46.88,65.152,36.1,62.375l-13.137-4.03c-12.976-4.156-21.1-15.051-21.222-26.2C1.609,20.7,9.752,13.02,13.864,9.978,18.371,6.644,24.79,4,34.076,3.932A38.836,38.836,0,0,1,62.372,16.024Z"/>
</svg>
